<?xml version="1.0" encoding="UTF-8" standalone="no"?>
<svg
   version="1.1"
   width="600"
   height="600"
   viewBox="0 0 450.0009 450.00054"
   id="svg29"
   sodipodi:docname="NUC.svg"
   inkscape:version="1.4 (e7c3feb100, 2024-10-09)"
   xmlns:inkscape="http://www.inkscape.org/namespaces/inkscape"
   xmlns:sodipodi="http://sodipodi.sourceforge.net/DTD/sodipodi-0.dtd"
   xmlns="http://www.w3.org/2000/svg"
   xmlns:svg="http://www.w3.org/2000/svg">
  <defs
     id="defs29" />
  <sodipodi:namedview
     id="namedview29"
     pagecolor="#ffffff"
     bordercolor="#000000"
     borderopacity="0.25"
     inkscape:showpageshadow="2"
     inkscape:pageopacity="0.0"
     inkscape:pagecheckerboard="0"
     inkscape:deskcolor="#d1d1d1"
     inkscape:document-units="px"
     inkscape:zoom="1.0770425"
     inkscape:cx="396.92027"
     inkscape:cy="264.14928"
     inkscape:window-width="2560"
     inkscape:window-height="1523"
     inkscape:window-x="0"
     inkscape:window-y="0"
     inkscape:window-maximized="1"
     inkscape:current-layer="svg29" />
  <path
     d="m 74.915954,329.68388 c 3.634338,0 6.595266,2.9603 6.595266,6.58994 0,3.63027 -2.960928,6.5976 -6.595266,6.5976 -3.631991,0 -6.590576,-2.96733 -6.590576,-6.5976 0,-3.62964 2.958585,-6.58994 6.590576,-6.58994 z"
     style="fill:#af032d;fill-rule:evenodd;stroke-width:1.56315"
     id="path16" />
  <path
     d="m 225.00246,0 c 123.9226,0 224.99826,101.07381 224.99826,225.00216 0,123.92242 -101.07566,224.99856 -224.99826,224.99856 C 101.07566,450.00072 0,348.92458 0,225.00216 0,101.07381 101.07566,0 225.00246,0 Z m 0,8.2797104 c 119.36256,0 216.71682,97.3558396 216.71682,216.7224496 0,119.36066 -97.35426,216.71651 -216.71682,216.71651 -119.36505,0 -216.7210185,-97.35585 -216.7210185,-216.71651 0,-119.36661 97.3559685,-216.7224496 216.7210185,-216.7224496 z"
     style="fill:#af032d;fill-rule:evenodd;stroke-width:1.56315"
     id="path17" />
  <path
     d="m 224.99949,77.131298 c 81.44385,0 147.86982,66.425262 147.86982,147.868982 0,81.44201 -66.42597,147.86789 -147.86982,147.86789 -81.44148,0 -147.867465,-66.42588 -147.867465,-147.86789 0,-81.44372 66.425985,-147.868982 147.867465,-147.868982 z"
     style="fill:#af032d;fill-rule:evenodd;stroke-width:1.56315"
     id="path18" />
  <path
     d="m 207.40463,329.41565 v 16.29914 c 0,0.62652 -0.10895,1.03872 -0.32311,1.24475 -0.21729,0.20618 -0.60667,0.38125 -1.1705,0.53287 -0.56039,0.15569 -1.17923,0.0861 -1.8567,-0.20196 -0.22947,-0.0932 -0.4122,-0.2068 -0.54804,-0.35014 -0.13647,-0.14006 -0.24182,-0.34671 -0.31905,-0.61901 -0.0744,-0.27637 -0.11301,-0.71952 -0.11301,-1.33431 v -9.36954 l -0.0234,-1.6768 c -0.008,-0.38125 -0.0546,-0.59962 -0.1399,-0.65355 -0.0897,-0.0584 -0.16757,-0.0937 -0.23713,-0.10942 h -0.60322 c -0.29622,-0.0156 -0.62292,-0.19446 -0.98072,-0.53694 -0.35765,-0.34187 -0.52929,-1.06966 -0.5135,-2.18638 0.008,-0.7078 0.0972,-1.22129 0.26824,-1.5405 0.17101,-0.31965 0.43612,-0.64229 0.79392,-0.97306 0.35781,-0.33076 0.86771,-0.66918 1.53705,-1.01588 0.66919,-0.34609 1.39293,-0.50584 2.17513,-0.48599 0.71202,0.0311 1.18629,0.17866 1.42748,0.43971 0.24181,0.26464 0.4047,0.54461 0.49067,0.84442 0.0814,0.29965 0.12834,0.86364 0.13584,1.69259 z m 11.12435,17.54389 c -0.5335,0 -1.05451,-0.0661 -1.56456,-0.19431 -0.50584,-0.1288 -0.95681,-0.39298 -1.34963,-0.79407 -0.38938,-0.3969 -0.71202,-0.98011 -0.96088,-1.74308 -0.25355,-0.76235 -0.36656,-1.41981 -0.34312,-1.96488 0.0158,-0.60729 0.15226,-1.05044 0.40878,-1.33087 0.26103,-0.2759 0.57556,-0.44675 0.95321,-0.51772 0.37767,-0.0655 0.70795,-0.10473 0.99652,-0.11239 0.25243,0 0.47831,0.0276 0.68043,0.0855 0.19852,0.0544 0.36938,0.15929 0.5099,0.31154 0.14412,0.15163 0.24479,0.32264 0.31497,0.5135 l 0.21853,0.85598 c 0.0303,0.0895 0.0696,0.15991 0.11646,0.21024 0.0504,0.0503 0.13239,0.0702 0.24479,0.0621 0.11707,0 0.24119,-0.0545 0.38515,-0.17101 0.14053,-0.11302 0.22197,-0.47488 0.24542,-1.08201 0.0194,-0.60666 0.0309,-0.92632 0.0309,-0.95681 -0.008,-0.15163 -0.0309,-0.26871 -0.0779,-0.35421 -0.0468,-0.0819 -0.13989,-0.14803 -0.28387,-0.19492 -0.0546,-0.008 -0.24947,0.0198 -0.58321,0.0744 -0.33498,0.0584 -0.54163,0.0853 -0.62713,0.0853 -0.3811,0.0156 -0.77814,-0.0695 -1.198,-0.26042 -0.4169,-0.19086 -0.77455,-0.42049 -1.0703,-0.68857 -0.29574,-0.27292 -0.54038,-0.63824 -0.72718,-1.10906 -0.19086,-0.46722 -0.33139,-0.89521 -0.42392,-1.28804 -0.0902,-0.3889 -0.15991,-0.97665 -0.21088,-1.75479 -0.0504,-0.7783 -0.0696,-1.42809 -0.0621,-1.95331 0.008,-0.49428 0.0505,-1.04638 0.12474,-1.65351 0.0778,-0.60666 0.17868,-1.17518 0.31498,-1.69633 0.13241,-0.52522 0.31154,-0.969 0.54117,-1.32321 0.2254,-0.35828 0.51287,-0.68451 0.85598,-0.97666 0.33843,-0.29153 0.74656,-0.48599 1.21785,-0.58727 0.47083,-0.0973 0.91054,-0.15164 1.32274,-0.15992 0.67686,0 1.24475,0.0938 1.70792,0.27636 0.46315,0.1793 0.89458,0.49068 1.29569,0.92227 0.39704,0.43206 0.69279,1.11312 0.87537,2.03882 0.1868,0.92976 0.31919,1.83326 0.40111,2.708 0.0778,0.87943 0.13239,2.05102 0.15928,3.52179 0.0275,1.4703 0.0156,2.78538 -0.0268,3.94118 -0.0392,0.7278 -0.0896,1.41293 -0.15584,2.05054 -0.0661,0.63824 -0.18727,1.38933 -0.36594,2.25251 -0.17914,0.86004 -0.53694,1.52579 -1.08139,1.99239 -0.5446,0.46722 -1.05451,0.74718 -1.53705,0.84019 -0.48661,0.0902 -0.90632,0.13303 -1.27224,0.12475 z m -0.15928,-16.04952 c -0.0708,0.008 -0.19087,0.0738 -0.37016,0.19789 -0.17913,0.12474 -0.28043,0.39689 -0.29967,0.80971 -0.0156,0.41581 -0.0228,0.71202 -0.0156,0.89475 0,0.10473 0.008,0.43143 0.0275,0.97651 0.0194,0.54054 0.12067,0.88364 0.3034,1.02292 0.1826,0.14053 0.34189,0.2068 0.47834,0.19853 0.11301,0 0.24885,-0.0581 0.40454,-0.17914 0.15584,-0.12411 0.23369,-0.48599 0.23369,-1.09671 v -1.25303 c -0.008,-0.78986 -0.11709,-1.2488 -0.32327,-1.37714 -0.20961,-0.13224 -0.3578,-0.19429 -0.43907,-0.19429 z m 17.17376,-1.18691 v 9.51695 c 0,0.53287 0.0896,0.90288 0.2723,1.10905 l 0.73188,0.54445 c 0.13646,0.14413 0.24134,0.35375 0.31919,0.62652 0.0738,0.27636 0.12818,0.74719 0.15163,1.41997 0.0268,0.67324 -0.0855,1.15985 -0.33436,1.46733 l -0.798,0.79736 -0.15928,1.08155 c -0.0627,0.29559 -0.18336,0.52928 -0.36594,0.69669 -0.18273,0.16742 -0.4047,0.28402 -0.66528,0.35014 -0.26463,0.0703 -0.66918,0.10896 -1.21363,0.11646 -0.54929,0.008 -0.98496,-0.15162 -1.31164,-0.47832 -0.19086,-0.1832 -0.30732,-0.40455 -0.35421,-0.66153 l -0.17101,-1.10499 c -0.12053,-0.15162 -0.25699,-0.23354 -0.40861,-0.24119 l -1.57567,-0.0469 c -0.35843,-0.008 -0.70029,-0.17086 -1.03464,-0.49005 -0.33546,-0.31904 -0.51819,-0.73952 -0.54164,-1.26818 -0.0275,-0.52929 0.0744,-1.35432 0.29982,-2.47854 l 2.59905,-12.35798 c 0.13646,-0.6534 0.4047,-1.13578 0.79753,-1.44732 0.39704,-0.31092 1.0001,-0.46661 1.81341,-0.46661 0.33484,0.008 0.61542,0.0461 0.83661,0.11646 0.22555,0.0738 0.40876,0.17507 0.55271,0.30732 0.14756,0.13646 0.26466,0.29575 0.36187,0.48661 0.0932,0.19039 0.15162,0.49005 0.17101,0.90694 0.0194,0.4122 0.0269,0.91397 0.0269,1.49781 z m -2.99548,6.37282 -0.80971,3.94165 c -0.0387,0.16741 0.0275,0.27996 0.19852,0.33076 0.17148,0.0545 0.35421,0.0821 0.54852,0.0855 0.19086,0.005 0.32325,-0.031 0.38531,-0.10473 0.0661,-0.0779 0.1013,-0.33498 0.10896,-0.77813 v -3.61089 l -0.0351,-0.25291 c -0.0156,-0.0821 -0.0351,-0.13647 -0.054,-0.16398 -0.0239,-0.0271 -0.0551,-0.0386 -0.086,-0.0345 -0.0345,0.003 -0.0738,0.031 -0.11661,0.0779 -0.0393,0.0503 -0.0896,0.22197 -0.13991,0.50943 z m 16.8788,-6.68028 v 16.29914 c 0,0.62652 -0.10958,1.03872 -0.32326,1.24475 -0.21774,0.20618 -0.60713,0.38125 -1.17095,0.53287 -0.5604,0.15569 -1.17925,0.0861 -1.8561,-0.20196 -0.22962,-0.0932 -0.41282,-0.2068 -0.54866,-0.35014 -0.13647,-0.14006 -0.2412,-0.34671 -0.31921,-0.61901 -0.0743,-0.27637 -0.11301,-0.71952 -0.11301,-1.33431 v -9.36954 l -0.0228,-1.6768 c -0.008,-0.38125 -0.0551,-0.59962 -0.14052,-0.65355 -0.0889,-0.0584 -0.16679,-0.0937 -0.23714,-0.10942 h -0.60306 c -0.2956,-0.0156 -0.62292,-0.19446 -0.98073,-0.53694 -0.3578,-0.34187 -0.52929,-1.06966 -0.5135,-2.18638 0.008,-0.7078 0.0972,-1.22129 0.26824,-1.5405 0.17148,-0.31965 0.43612,-0.64229 0.79393,-0.97306 0.35827,-0.33076 0.86771,-0.66918 1.5369,-1.01588 0.66933,-0.34609 1.39308,-0.50584 2.17528,-0.48599 0.71202,0.0311 1.18691,0.17866 1.42747,0.43971 0.24183,0.26464 0.40455,0.54461 0.49068,0.84442 0.0819,0.29965 0.1288,0.86364 0.13646,1.69259 z"
     style="fill:#ffffff;fill-rule:evenodd;stroke-width:1.56315"
     id="path19" />
  <g
     id="Layer1002"
     transform="matrix(1.5631555,0,0,1.5631533,-243.9684,-748.09046)">
    <path
       d="m 257.5024,632.1257 c -0.1004,5.5905 -1.0369,11.7077 -3.1502,16.9971 -3.4506,8.6362 -6.6401,12.5291 -12.2864,18.1874 -2.1808,2.1857 -3.6192,2.6131 -4.3043,4.9051 -0.5454,1.8257 0.1858,4.4203 2.2347,6.1235 1.2095,1.0054 3.3776,1.4699 5.3842,1.1758 3.0958,-0.4532 4.82,-2.6452 6.3235,-4.2772 9.9495,-10.7994 16.106,-24.5249 17.3582,-40.2174 0.106,-1.3312 2.4842,-2.6389 4.0327,-2.2388 5.9164,1.5294 7.3019,5.0526 6.3928,11.8482 -1.5102,11.2844 -2.5516,16.2584 -7.4963,25.9453 -3.1341,6.14 -5.8636,8.8141 -7.8882,11.393 -2.1515,2.7408 -3.5584,3.4633 -4.7301,5.5868 -1.6152,2.9251 -0.9095,5.1433 1.4249,7.0045 1.7286,1.3789 4.3094,2.7745 7.678,0.5439 4.7908,-3.173 13.1693,-13.3592 17.0555,-21.7515 1.8628,-4.0233 4.3057,-7.6856 6.0966,-17.874 1.5466,-8.8021 1.4661,-14.85 0.518,-20.8305 -1.5185,-9.5835 -8.9519,-11.6803 -18.6429,-14.4293 -11.7051,-3.3203 -16.9754,-4.2024 -21.8074,-12.3168 -7.463,-12.5351 -17.5942,2.8543 -10.9061,9.4857 3.7206,3.6892 10.5353,7.7912 15.3283,10.2506 1.7789,0.9129 1.4339,1.737 1.3845,4.4886 z"
       style="fill:#ffffff;fill-rule:evenodd"
       id="path20" />
    <path
       d="m 342.5263,632.1257 c 0.1008,5.5905 1.0372,11.7077 3.1502,16.9971 3.4506,8.6362 6.6405,12.5291 12.2868,18.1874 2.1808,2.1857 3.6188,2.6131 4.3039,4.9051 0.5457,1.8257 -0.1855,4.4203 -2.2348,6.1235 -1.2091,1.0054 -3.3771,1.4699 -5.3837,1.1758 -3.0959,-0.4532 -4.82,-2.6452 -6.3236,-4.2772 -9.9494,-10.7994 -16.1059,-24.5249 -17.3582,-40.2174 -0.106,-1.3312 -2.4841,-2.6389 -4.033,-2.2388 -5.916,1.5294 -7.3016,5.0526 -6.3925,11.8482 1.5103,11.2844 2.5512,16.2584 7.496,25.9453 3.1344,6.14 5.8636,8.8141 7.8882,11.393 2.1515,2.7408 3.5588,3.4633 4.7305,5.5868 1.6151,2.9251 0.9094,5.1433 -1.4249,7.0045 -1.7287,1.3789 -4.3099,2.7745 -7.6784,0.5439 -4.7905,-3.173 -13.1689,-13.3592 -17.0555,-21.7515 -1.8628,-4.0233 -4.3054,-7.6856 -6.0962,-17.874 -1.5467,-8.8021 -1.4661,-14.85 -0.5184,-20.8305 1.5185,-9.5835 8.9523,-11.6803 18.6433,-14.4293 11.7051,-3.3203 16.9753,-4.2024 21.8074,-12.3168 7.463,-12.5351 17.5937,2.8543 10.9061,9.4857 -3.7207,3.6892 -10.5353,7.7912 -15.3287,10.2506 -1.7785,0.9129 -1.4335,1.737 -1.3845,4.4886 z"
       style="fill:#ffffff;fill-rule:evenodd"
       id="path21" />
  </g>
  <path
     d="m 215.7389,194.48847 c -8.97955,0.038 -21.25189,0.219 -28.60606,-3.4874 -4.45578,-2.24546 -8.14342,-5.43539 -9.74597,-9.4069 -1.99787,-4.85984 -2.83275,-10.21677 -3.18352,-14.95234 l 41.53555,0.0433 z m 18.52464,0 c 8.97892,0.038 21.25079,0.219 28.60496,-3.4874 4.45641,-2.24546 8.14452,-5.43539 9.74705,-9.4069 1.99787,-4.85984 2.83213,-10.21677 3.1829,-14.95234 l -41.5349,0.0433 z m 42.38402,-43.18961 c 1.44325,-8.43197 2.40523,-16.31479 5.57468,-21.62435 1.17971,-1.97614 5.52075,-4.3984 9.80974,-3.83457 4.22693,0.5557 6.17306,3.07519 7.07422,6.47645 1.7326,6.53555 -2.43509,19.08501 -4.1208,28.41578 -0.9257,5.12496 -1.03168,9.40987 -2.34864,16.98289 -1.03215,5.91793 -2.94217,14.2633 -7.74981,20.2075 -4.69759,5.80243 -11.48153,9.45254 -19.20852,11.22954 -10.14238,2.33222 -19.04408,2.59687 -25.00455,4.15892 -5.95999,1.56159 -6.72531,9.82035 -6.45427,15.37518 0.1213,2.4837 -0.74469,4.99568 -2.67815,6.42893 -1.29273,0.95853 -3.70984,1.65992 -6.53962,1.86547 -6.3e-4,0 -6.3e-4,0 -10e-4,0 -4.7e-4,0 -4.7e-4,0 -0.001,0 -2.82931,-0.20555 -5.24688,-0.90694 -6.53914,-1.86547 -1.93331,-1.43325 -2.7993,-3.94523 -2.67816,-6.42893 0.27121,-5.55483 -0.49411,-13.81359 -6.45412,-15.37518 -5.96062,-1.56205 -14.86279,-1.8267 -25.00517,-4.15892 -7.72652,-1.777 -14.5103,-5.42711 -19.20789,-11.22954 -4.80764,-5.9442 -6.71829,-14.28957 -7.74997,-20.2075 -1.31742,-7.57302 -1.4234,-11.85793 -2.34911,-16.98289 -1.68571,-9.33077 -5.85276,-21.88023 -4.12031,-28.41578 0.90115,-3.40126 2.84744,-5.92075 7.07373,-6.47645 4.28946,-0.56383 8.62987,1.85843 9.81037,3.83457 3.16929,5.30956 4.13081,13.19238 5.57406,21.62435 l 42.38512,-0.009 c -0.26465,-10.12345 -0.30623,-9.34766 -0.68092,-19.47017 -0.20727,-5.59687 -1.16815,-10.91284 -0.44738,-16.56661 0.67982,-5.32582 5.60048,-7.62928 10.38889,-8.1012 0,0 6.3e-4,0 0.001,0 6.2e-4,0 6.2e-4,0 10e-4,0 4.78951,0.47192 9.70969,2.77538 10.38889,8.1012 0.72124,5.65377 -0.23948,10.96974 -0.44676,16.56661 -0.37484,10.12251 -0.41689,9.34672 -0.68043,19.47017 z"
     style="fill:#ffffff;fill-rule:evenodd;stroke-width:1.56315"
     id="path22" />
  <path
     d="m 251.29599,377.33254 c 0,0 0.52131,1.51923 1.37044,4.88188 0.8491,3.36266 1.53876,7.7287 2.49089,13.67932 0.95211,5.95076 1.47858,9.66997 0.22164,11.77585 -1.25708,2.10604 -2.74411,2.75662 -3.80894,3.98855 -1.06482,1.23207 -0.96571,2.16997 -2.00177,1.88125 -1.03606,-0.28856 -2.17154,-1.51516 -2.26689,-0.80331 -0.0953,0.71203 -0.64168,2.36318 0.49506,4.13987 1.13656,1.77682 2.75802,3.2934 3.95477,3.1288 1.19691,-0.16476 1.74698,-0.16601 2.42368,-1.29992 0.677,-1.13406 0.31904,-2.00662 0.99713,-2.59061 0.6781,-0.584 1.7795,-0.0366 1.52345,1.12875 -0.2562,1.16518 -1.79949,5.40711 -3.02626,6.54243 -1.22693,1.13531 -1.97051,1.46061 -3.10068,2.43398 -1.13031,0.97322 -1.77965,0.0366 -2.49167,-0.0587 -0.71217,-0.0954 -1.87641,0.19867 -1.74307,1.81591 0.13318,1.6174 1.64256,3.33374 4.31165,3.45144 2.78289,0.12271 4.81999,-0.52928 6.36955,-2.02116 1.54971,-1.49202 2.09463,-3.69325 2.95983,-7.35119 0.86505,-3.65794 1.15517,-4.14392 2.06321,-3.27262 0.90803,0.87131 1.98193,3.48943 4.05404,4.06669 2.07228,0.57744 3.07316,-0.36327 5.43681,0.27825 2.36349,0.64136 3.01423,2.12793 6.3447,1.14939 3.33061,-0.97853 3.68467,-1.75589 6.0469,-1.66445 2.3624,0.0912 3.10459,-0.78408 2.06588,-2.17263 -1.03872,-1.3887 -1.55738,-1.8081 -4.59912,-1.86547 -3.04174,-0.0573 -4.6593,0.0759 -7.86423,-0.62822 -3.2051,-0.70405 -6.47538,-1.66679 -8.22486,-2.60077 -1.74949,-0.934 -2.81712,-0.80206 -3.14366,-2.09541 -0.32655,-1.29335 -1.36511,-2.68191 -0.78628,-4.20395 0.57884,-1.52188 2.41477,-5.14981 4.15409,-8.61578 1.73917,-3.46599 2.54669,-4.0825 1.08733,-5.50262 -1.45936,-1.41997 -2.33347,-1.61208 -3.36828,-1.35072 -1.03481,0.26136 -3.49256,0.88193 -3.49256,0.88193 0,0 -0.36046,-1.9727 -0.49505,-4.14001 -0.13443,-2.16731 -0.0429,-4.52924 -1.66804,-7.69603 -1.62522,-3.16663 -2.11261,-4.00652 -2.82604,-4.65195 -0.71327,-0.64542 -0.74594,-0.77469 -1.78215,-1.0634 -1.03606,-0.28872 -1.68148,0.4247 -1.6815,0.4247 z"
     style="fill:#af032d;fill-rule:evenodd;stroke-width:1.56315"
     id="path23" />
  <path
     d="m 131.23471,369.0211 c 0,0 -3.12191,0.1671 -3.7583,0.38657 -0.63635,0.21961 -1.1175,0.55351 -1.45826,1.08639 -0.34075,0.53288 -0.51788,0.85864 -0.14366,0.95008 0.37423,0.0916 1.26522,-0.0841 1.61662,-0.21165 0.35156,-0.1277 0.38078,-0.29731 1.03544,-0.46676 0.65449,-0.16945 1.15939,-0.25041 1.65788,-0.56774 0.49849,-0.31731 0.65183,-0.27073 0.9121,-0.64933 0.26027,-0.37874 0.13818,-0.52756 0.13818,-0.52756 z m 7.36811,-18.00205 c -1.20707,1.82372 -2.30816,4.21441 -3.50335,5.06508 -2.47181,2.06477 -3.73218,1.91408 -5.34021,3.51553 -0.77642,0.7733 -1.92862,1.57863 -3.11787,2.6508 -1.18909,1.072 -2.56279,2.70238 -3.5879,3.28308 -1.02512,0.58041 -1.31462,0.52178 -2.15184,0.67654 -0.83723,0.15506 -1.43295,0.23713 -2.59688,0.6001 -1.16376,0.3628 -3.52616,1.44357 -4.09671,1.63568 -0.57073,0.19227 -1.47359,0.37109 -1.72119,0.2226 -0.2476,-0.14851 0.0625,-0.97588 0.32951,-1.75793 0.26699,-0.78189 0.60009,-2.40695 0.66496,-3.29434 0.0649,-0.88741 0.0242,-0.75345 0.0519,-1.37417 0.0278,-0.62074 -0.55806,-1.00386 -1.43139,-0.53789 -0.87318,0.46582 -2.45947,1.59254 -2.70738,2.26329 -0.24776,0.67091 -1.83672,2.5284 -2.1373,3.70984 -0.3006,1.18143 -0.33874,3.90585 -0.15492,4.98598 0.18367,1.07999 0.76173,3.65544 1.40841,4.6568 0.64667,1.00151 1.32805,1.64771 1.81842,1.76776 0.49036,0.11975 1.21644,-0.0544 1.26443,-0.74202 0.0482,-0.68764 0.26699,-0.78204 0.20509,-1.44451 -0.0619,-0.66278 -0.33342,-0.87693 -6.3e-4,-1.68274 0.3328,-0.80596 1.19066,-1.84718 2.56514,-2.61405 1.37464,-0.76689 1.78966,-0.97714 2.49652,-1.04013 0.70685,-0.063 1.19956,0.14553 0.70545,0.71202 -0.49427,0.56663 -1.10078,1.06981 -1.32587,1.76214 -0.2251,0.69232 -0.28028,1.11437 -1.02793,1.31133 -0.7475,0.1968 -0.94836,0.13568 -1.37292,-0.008 -0.42455,-0.14366 -1.27272,0.43221 -1.32196,1.07561 -0.0493,0.64339 0.26371,1.58722 -0.81315,2.7227 -1.07671,1.13547 -1.95145,2.3763 -2.07009,2.9109 -0.11865,0.53444 -0.43456,1.14063 -1.42888,2.05257 -0.99416,0.91195 -2.40961,2.63205 -3.74376,4.08437 -1.33399,1.45217 -2.70285,3.25965 -3.99621,4.57801 -1.293507,1.31836 -2.517301,2.8626 -2.768812,3.12771 -0.251513,0.26511 -0.285277,0.93821 -0.07315,1.13938 0.212121,0.20118 0.670281,-0.0694 1.483122,-0.60806 0.812998,-0.53851 3.02033,-3.07863 3.67138,-3.87146 0.65105,-0.79283 1.65694,-1.85343 2.36114,-2.59594 0.70405,-0.74249 1.0753,-0.39031 0.47457,0.34937 -0.60087,0.73968 -5.18014,5.46244 -5.32285,5.93154 -0.14272,0.4691 -0.023,1.08624 1.0359,0.0759 1.05888,-1.01026 3.33031,-3.08676 4.59318,-4.20597 1.26287,-1.11922 1.97238,-1.65507 2.77445,-2.60703 0.8019,-0.95181 3.37781,-3.24307 4.28304,-4.19769 0.90523,-0.95462 2.52559,-2.23843 3.28278,-2.93076 0.75704,-0.692 1.79028,-0.71936 2.98829,-0.38938 1.19784,0.33014 3.2945,1.41184 3.8166,1.60489 0.52209,0.19289 2.51636,-0.63542 2.54747,-1.41184 0.0311,-0.77626 -0.30356,-1.69805 -0.95633,-2.92153 -0.65294,-1.22332 -1.22255,-1.26006 -1.18315,-1.72635 0.0393,-0.46628 3.79001,-1.34134 5.44071,-1.48844 1.65038,-0.14708 6.71344,-0.28152 8.17092,0.0935 1.45749,0.37484 2.4093,1.17689 3.32562,0.63557 0.91632,-0.54132 1.43388,-2.46791 0.81487,-4.36432 -0.61901,-1.89657 -0.50927,-3.60557 -2.56389,-5.05024 -2.05461,-1.44482 -3.35843,-1.87563 -4.24099,-2.00724 -0.88225,-0.13162 -1.60005,0.0941 -1.56628,-0.57884 0.0339,-0.67293 1.422,-1.92174 1.76027,-2.80945 1.24739,-3.27403 2.6844,-0.6101 4.18003,-4.28101 1.14017,-2.79883 3.18305,-3.99167 4.23443,-5.74506 1.21458,-2.02522 -3.21775,-2.73787 -4.42482,-0.91397 z"
     style="fill:#af032d;fill-rule:evenodd;stroke-width:1.56315"
     id="path24" />
  <path
     d="m 197.86264,375.49724 c 0,0 -0.0941,-1.4975 0.0264,-2.55466 0.12053,-1.05732 1.06545,-0.609 2.00303,0.56914 0.93742,1.17815 0.72296,0.73782 0.99761,2.41976 0.27478,1.68212 1.80714,5.38507 1.34791,7.42405 -0.45941,2.03913 -2.66567,7.01559 -3.93056,9.26481 -1.26521,2.24938 -3.62214,7.66226 -3.15898,8.79883 1.86109,1.49219 1.74511,1.26866 1.80982,3.04768 0.0649,1.77887 -2.36708,4.93956 -4.13283,6.16148 -1.76574,1.22176 -3.7461,2.00334 -4.56316,3.30857 -0.8169,1.30507 -1.82983,3.88553 -1.00151,5.026 0.82831,1.14049 2.68066,2.14606 5.22203,3.63356 2.54138,1.4875 3.0308,3.60978 3.26809,5.40085 0.23713,1.79106 -0.42549,2.29486 -1.81483,2.4257 -1.38933,0.131 -1.89376,-0.53147 -3.89678,-1.10061 -2.00304,-0.56915 -8.54405,-0.31233 -10.43032,-1.57379 -0.6484,-0.43346 -0.63823,-1.05434 -0.17663,-1.334 0.46191,-0.2798 1.37557,-0.21853 1.62568,-0.63057 0.22728,-0.37453 -0.94977,-0.98384 -0.95665,-1.40589 -0.3292,-1.45655 1.21457,-6.24621 3.31545,-11.62534 0.42174,-1.07982 0.92508,-2.19576 1.47468,-3.32685 -0.59978,-0.11662 -0.75813,-0.22869 -1.35791,-0.5296 -0.77704,-0.3897 -1.27491,-1.41246 -1.35901,-2.04914 -0.0841,-0.63683 1.24567,-0.96791 2.2289,-1.17549 0.98323,-0.20775 1.16299,-0.024 2.05837,-0.50521 0.89522,-0.48098 1.1558,-1.05967 1.41621,-1.63834 0,0 0.0234,0.0247 0.0646,0.0689 1.37979,-2.55279 2.693,-5.00288 3.53117,-7.10876 1.83732,-4.61552 4.04372,-9.59213 5.21093,-12.97386 1.16705,-3.38188 1.1783,-8.01726 1.17829,-8.01726 z m -17.85405,8.57265 c 0.22072,0.95711 0.57712,1.52079 1.032,2.11823 0.45488,0.59743 0.53429,2.57138 -1.47546,7.8636 -2.00975,5.29205 -4.34479,12.15852 -4.97084,13.97239 -0.62588,1.81389 -1.63599,5.52497 -2.90043,6.44192 -1.26444,0.91695 -2.85026,1.58769 -3.61808,1.45795 -0.76783,-0.12974 -1.85265,-0.91022 -0.90538,-2.47776 0.94728,-1.56768 2.62062,-2.88463 4.01043,-4.16423 1.38949,-1.27976 2.82102,-2.68034 3.48036,-3.80597 0.65934,-1.12578 1.49392,-3.54413 0.69702,-4.76652 -0.79705,-1.22239 -1.07233,-1.99396 -4.79889,-1.79153 -3.72656,0.20242 -5.87981,0.94789 -6.94807,2.47369 -1.06841,1.52594 -3.73078,0.60713 -1.7695,2.77256 1.9613,2.16544 3.88914,3.64277 5.47481,2.97202 1.58581,-0.67058 2.771,-1.7501 2.67487,-0.29465 -0.096,1.45545 -2.58733,3.57275 -3.49708,5.42399 -0.90976,1.85124 -2.28283,5.43727 -1.81546,7.22239 0.46738,1.78528 1.31446,2.07759 2.27423,3.22088 0.95978,1.14313 1.15579,1.75213 2.38272,0.55164 1.22692,-1.20051 2.5456,-3.45191 3.60979,-4.57316 1.0642,-1.12141 2.0407,-1.59629 3.17572,-1.7459 1.13517,-0.14959 2.44961,-1.99645 2.91293,-3.73108 0.46333,-1.73479 1.46079,-8.15685 2.46245,-11.059 1.00152,-2.902 2.25767,-6.9343 3.58056,-9.59026 1.32306,-2.65595 3.34703,-6.55852 3.24277,-8.21859 -0.10426,-1.65975 -0.98464,-2.64032 -2.10728,-3.70436 -1.12251,-1.06404 -1.68164,-1.79825 -2.77492,-1.76964 -1.09327,0.0286 -2.10322,-0.18461 -2.60406,1.26646 -0.50084,1.45108 -1.04575,2.97781 -0.82521,3.93493 z"
     style="fill:#af032d;fill-rule:evenodd;stroke-width:1.56315"
     id="path25" />
  <path
     d="m 320.22084,393.70392 c 0.38593,-2.05133 1.41716,-5.33239 1.89049,-6.46974 0.69779,-1.67711 2.08462,-4.0431 2.88495,-5.09635 0.37235,-0.48927 0.65965,-0.94884 0.9229,-1.37261 -0.0175,0.0156 -0.0356,0.031 -0.0543,0.0469 -0.57446,0.49646 -0.33467,0.56289 -0.98525,0.76 -0.65059,0.19728 -0.0902,-0.10441 -0.89038,0.13085 -0.80018,0.23524 -1.1966,0.30418 -1.1966,0.30418 -0.26119,0.22556 -0.48426,0.60072 -0.6695,1.12579 -0.18523,0.52474 -0.19226,0.62213 -0.59337,1.42465 -0.4011,0.80268 -0.50552,0.89287 -0.93508,2.08494 -0.42956,1.19205 -0.76423,1.75495 -0.70232,2.24875 0.0618,0.4938 0.49426,1.94456 0.41595,3.01579 -0.0777,1.06498 -0.38766,1.33853 -0.0875,1.79685 z m 19.19304,-7.96412 c 0,0 1.09702,-3.41752 1.48108,-4.64131 0.38423,-1.22379 1.95099,-4.01824 2.66378,-4.70259 0.7128,-0.68451 1.72932,-1.49406 2.11683,-1.76043 0.38766,-0.26636 0.87364,-1.37229 -0.4072,-0.47144 -1.28084,0.90085 -2.54388,2.0607 -3.47819,3.75985 -0.93445,1.69915 -1.64178,3.81973 -1.93673,4.82905 -0.29465,1.00949 -0.66998,1.60801 -0.71281,2.19389 -0.0429,0.58602 0.27324,0.79298 0.27324,0.79298 z m -1.20081,11.87747 c 0,0 0.0572,-1.28429 0.1074,-2.97421 0.0501,-1.68977 0.0947,-3.30639 0.0822,-3.63871 -0.0125,-0.33217 -0.32873,-0.53929 -0.46269,-0.21775 -0.13397,0.3217 -0.32701,2.95827 -0.27339,3.73531 0.0535,0.77705 -0.14303,0.9468 0.002,1.98818 0.14459,1.04121 -0.0449,1.61646 0.25885,1.49125 0.30373,-0.12506 0.2859,-0.38407 0.2859,-0.38407 z m 2.10806,-5.6633 c 0,0 -0.0678,2.94013 0.0303,3.60994 0.0983,0.66982 0.21961,1.52533 0.63056,1.44482 0.41081,-0.0807 0.78785,-1.70977 1.2238,-2.63531 0.43581,-0.92539 0.86645,-1.77779 0.97181,-2.21187 0.10535,-0.43409 -0.12146,-0.85552 -0.68419,-0.71233 -0.56274,0.14303 -0.60198,0.1771 -1.12548,0.28622 -0.52334,0.10926 -1.04684,0.21853 -1.04684,0.21853 z m -9.3167,-8.64737 c 0.0408,0.66449 0.019,1.32947 -0.0906,1.86249 -0.36953,1.79467 -0.58605,5.81791 -0.20149,4.89549 0.38469,-0.92257 0.78095,-2.00255 1.63818,-2.8909 0.85723,-0.88818 1.24193,-1.81059 2.55576,-0.28996 1.31383,1.52064 2.58937,2.48416 2.54308,3.11442 -0.0465,0.63011 -0.74718,4.77669 -0.67871,7.07828 0.0683,2.30158 -0.42394,3.61213 0.39049,4.38386 0.81454,0.77189 2.85463,2.10744 3.68074,2.72161 0.82613,0.61431 2.01368,0.62104 2.65191,-0.52069 0.63837,-1.14172 2.06553,-5.47322 3.31903,-7.44139 1.25349,-1.96832 2.99125,-4.05983 2.70723,-5.58499 -0.28371,-1.52532 -0.73687,-2.9045 -2.21624,-3.24917 -1.47952,-0.34468 -3.13976,-0.38579 -3.93899,-0.28528 -0.7994,0.10049 -1.4911,-0.18726 -1.4911,-0.18726 0,0 0.23963,-4.33822 1.23943,-6.08739 0.99979,-1.74885 3.09896,-4.44795 3.74079,-4.55972 0.64182,-0.11192 0.6684,0.60259 1.64865,0.19852 0.98012,-0.40423 2.44449,-0.93164 1.96817,-1.99568 -0.47614,-1.06403 -1.8478,-1.79685 -3.1929,-1.81513 -1.3451,-0.0183 -2.48276,0.37453 -3.76282,1.62818 -1.28023,1.25349 -3.64122,5.35896 -4.2643,7.37292 -0.62338,2.01397 -0.87364,3.26278 -0.87364,3.26278 0,0 -0.93368,-0.22604 -1.26397,-1.12094 -0.33014,-0.89506 -0.71372,-3.21947 -1.29773,-3.89538 -0.19383,-0.22447 -0.76547,-0.88584 -1.07153,-1.25255 l -0.003,0.005 c -0.03,-0.0395 -0.0655,-0.0832 -0.10693,-0.13115 -0.32982,-0.38173 -0.28278,-0.32733 -0.58913,-0.68185 -0.30623,-0.35436 -0.4316,-0.38907 -0.49475,-0.57274 -0.0633,-0.18335 -0.036,-0.2068 -0.13162,-0.64824 -0.0955,-0.44128 -0.18993,-0.55038 -0.45269,-0.79971 -0.26275,-0.249 -0.43517,-0.33842 -0.36577,-0.58884 0.0693,-0.25057 0.73093,-1.96519 0.94022,-2.38427 0.20963,-0.41909 0.54804,-0.85443 0.75376,-1.2227 0.20586,-0.36828 0.57883,-0.92867 0.89882,-1.10984 0.31966,-0.18102 0.53803,-0.36953 0.54303,-0.088 0.005,0.28137 -0.0396,0.89147 -0.2254,1.33775 -0.18587,0.44643 -0.37172,0.89272 -0.29247,1.20519 0.0793,0.31232 0.13537,0.5976 0.0437,1.15282 -0.0916,0.55555 -0.0655,1.24756 -0.0655,1.24756 0,0 0.30747,-0.36109 0.53053,-0.26809 0.22322,0.093 -0.0319,0.78972 0.29027,0.22558 0.32217,-0.56399 0.14116,-0.88397 0.50303,-1.2918 0.36219,-0.40799 0.64215,-0.74547 0.67435,-0.48755 0.0323,0.25777 -0.1596,1.13829 -9.4e-4,0.71546 0.15866,-0.42284 0.49567,-1.1905 1.04841,-1.76324 0.55289,-0.57305 0.6187,-0.77251 0.85536,-1.21519 0.23651,-0.44268 0.62213,-0.82347 0.94195,-1.00464 0.31983,-0.18086 0.74751,-0.78862 0.95338,-1.15689 0.20571,-0.36812 0.46222,-0.7328 0.78188,-0.91382 0.31998,-0.18101 0.90616,-1.21144 0.93227,-1.56737 0.0259,-0.35593 0.0555,-0.76251 -0.15663,-1.00792 -0.21197,-0.24542 -0.45128,-0.46739 -0.77235,-0.61839 -0.32123,-0.15147 -0.66951,-0.27902 -0.95228,-0.60619 -0.28277,-0.32732 -0.42408,-0.49099 -0.82347,-0.62229 -0.11427,-0.0376 -0.19805,-0.0661 -0.26636,-0.0919 -0.53945,-0.56227 -1.52673,-0.92711 -2.15261,-0.63026 -1.14736,0.54256 -2.39584,1.69757 -3.62089,3.52209 -1.22505,1.82545 -1.77028,2.68315 -2.03164,3.62229 -0.0585,0.20993 -0.31372,0.75141 -0.68122,1.47218 10e-4,-0.0161 0.002,-0.033 0.003,-0.0494 0.0222,-0.30497 0.15866,-0.42284 -0.0298,-0.64089 -0.18852,-0.21838 -0.88177,-1.57222 -1.1658,-2.23173 -0.28403,-0.65933 -0.74297,-1.02511 -0.88928,-1.47013 -0.14646,-0.44504 -0.30028,-0.78847 -0.50114,-1.18644 -0.20102,-0.39782 -0.37704,-0.43643 -0.5235,-0.88147 -0.14632,-0.44517 -1.42373,-2.19904 -1.83797,-3.17475 -0.41454,-0.97572 -0.72077,-1.33009 -0.94508,-1.75542 -0.22462,-0.42503 -0.13162,-0.64856 -0.37969,-1.10078 -0.24807,-0.45269 -0.5904,-1.01418 -0.87318,-1.3415 -0.28278,-0.32717 -0.13005,-0.31606 -0.59275,-0.63088 -0.46269,-0.31483 -0.61494,-0.32608 -0.72171,-0.61464 -0.1066,-0.28919 -1.43497,-3.09457 -1.56174,-3.46145 -0.1263,-0.36687 0.0261,-0.35593 -0.38329,-1.05012 -0.40907,-0.69404 -1.15579,-1.66852 -1.52517,-2.20655 -0.36969,-0.53788 -0.40955,-0.6942 -0.84098,-1.08343 -0.43158,-0.38937 -0.48254,-0.39296 -0.82347,-0.62228 -0.34108,-0.22932 -0.39688,-0.51443 -0.86176,-0.44613 -0.46489,0.0683 -0.98433,0.18383 -1.29179,0.54445 -0.30732,0.36077 -0.60589,0.95243 -0.65934,1.33196 -0.0532,0.37922 -0.27122,0.56774 -0.1521,1.03637 0.11911,0.46864 0.25792,-0.0324 0.44378,0.56899 0.18602,0.60135 0.42799,1.48781 0.57821,1.88189 0.15006,0.39437 0.6115,1.42449 0.87959,1.95502 0.26761,0.53055 0.32732,0.76486 0.30497,1.07014 -0.0222,0.30497 -0.35093,0.25527 -0.16475,0.85661 0.18616,0.60134 1.64506,3.72281 1.80732,4.29696 0.16256,0.57398 0.36233,1.68726 0.37624,2.1992 0.0141,0.51224 0.15272,1.05903 -0.1338,0.7825 -0.28637,-0.27636 -0.84082,-1.08341 -0.95493,-1.27068 -0.11412,-0.18727 -0.69091,-1.73666 -0.85333,-2.31096 -0.16256,-0.57384 -0.21603,-1.24225 -0.38219,-1.76527 -0.16632,-0.52335 -0.21618,-1.2424 -0.70217,-1.58441 -0.48614,-0.34202 -0.7056,-0.48583 -1.23364,-0.60104 -0.52837,-0.1152 -0.71546,-0.001 -1.0764,-0.30872 -0.36094,-0.30717 -1.62083,-1.6002 -2.24689,-1.77355 -0.62634,-0.17352 -0.67715,-0.17711 -1.38496,-0.27981 -0.70795,-0.10286 -0.94226,-0.0433 -1.54361,0.14272 -0.60135,0.18617 -0.82082,0.0423 -1.23724,0.4974 -0.41643,0.45533 -1.05481,1.14953 -1.20973,1.52157 -0.1549,0.37202 0.15507,0.67574 0.44269,1.28444 0.28794,0.60853 0.85848,1.54455 1.59864,1.90532 0.74031,0.36047 1.49672,0.8502 2.34099,0.83504 0.84441,-0.0156 1.32414,-0.28668 1.86343,-0.32388 0.53929,-0.0373 0.81206,-0.27308 1.00558,0.22666 0.19352,0.49957 0.32419,2.91106 0.4197,3.35233 0.0957,0.44144 0.33858,0.61245 0.35609,1.07373 0.0173,0.46129 0.35109,0.79205 -0.008,0.81706 -0.35952,0.0249 -1.26099,-0.57743 -1.84874,-0.92695 -0.58774,-0.34952 -2.12416,-1.35603 -2.91512,-1.72025 -0.79112,-0.36452 -1.02543,-0.30512 -1.50642,-0.36546 -0.4813,-0.0607 -0.15256,-0.011 -0.89522,0.011 -0.74266,0.0225 -0.91491,-0.0667 -1.18769,0.16882 -0.27276,0.23572 -0.38172,0.32983 -0.47488,0.55288 -0.0928,0.22338 -0.22541,0.29044 -0.29121,0.4899 -0.0657,0.19977 -0.18571,0.82472 -0.18571,0.82472 0.16398,0.26902 0.88772,1.42372 1.32775,1.93315 0.44033,0.50974 2.78773,3.068 3.40814,3.62761 0.62027,0.55929 0.85723,0.83363 1.09437,1.10812 0.23697,0.27433 0.98557,0.58602 0.42955,0.65558 -0.55601,0.0697 -0.6523,-0.12114 -0.89819,0.22838 -0.24573,0.34936 -0.39,0.81613 -0.34889,1.25991 0.041,0.44378 -0.0819,0.61838 0.10536,1.07263 0.1871,0.45441 0.1871,0.45441 0.49193,0.80721 0.30481,0.3528 0.45268,0.84097 0.86442,1.23833 0.41173,0.39736 0.94821,1.09749 1.2191,1.41106 0.27105,0.31373 0.98041,0.65903 1.3687,0.87115 0.38876,0.21196 0.86098,0.28308 0.94649,0.61979 0.0857,0.33702 0.19807,0.30841 0.51882,0.4419 0.32061,0.13365 0.33859,0.39188 1.03529,0.4061 0.69685,0.0141 2.01381,0.58775 2.59296,0.70342 0.57915,0.11568 1.00698,0.29372 1.47373,0.438 0.4669,0.14412 0.61293,0.15491 0.94463,0.14241 0.33122,-0.0125 0.68074,0.23338 0.68074,0.23338 0,0 0.0683,0.0427 0.0772,0.11207 0.008,0.0692 -0.16286,0.38641 -0.21069,0.51491 -0.0479,0.12849 -0.39737,0.87802 -0.75048,1.51641 -0.35343,0.63871 -0.90725,1.92705 -1.21332,2.62016 -0.30608,0.6931 -0.95165,2.53683 -1.03231,2.93982 -0.0803,0.40282 -0.12239,0.62979 -0.24651,0.92758 -0.12396,0.29746 -0.20947,0.41892 -0.31357,0.79455 -0.10411,0.37577 -0.0258,1.40355 -0.12599,1.72838 -0.10035,0.32481 -0.15866,0.42282 -0.0358,0.84066 0.1227,0.41783 0.093,0.8244 0.12536,1.08233 0.0323,0.25776 0.11177,0.57039 0.11177,0.57039 l 0.0771,0.6956 -0.1116,0.47724 c 0,0 0.27183,0.47988 0.24963,0.78486 -0.0223,0.30497 -0.26433,0.46613 -0.17742,0.67684 0.0869,0.21072 0.42784,0.44003 0.42784,0.44003 0,0 -0.10771,0.42674 -0.0793,0.73546 0.0287,0.30856 -0.0259,0.35577 0.108,0.62088 0.13412,0.26543 0.0411,0.48849 0.26793,0.5307 0.22698,0.0421 0.90398,0.2193 1.35417,0.35436 0.44987,0.1349 0.89271,0.37172 1.22113,0.42127 0.32858,0.0496 0.73906,0.0283 1.13704,-0.17257 0.39782,-0.20102 0.45972,-0.34968 0.59868,-0.85066 0.13866,-0.501 0.12991,-1.77919 0.17445,-2.38914 0.0443,-0.61025 0.0518,-0.7117 0.16336,-1.18908 0.11129,-0.47754 -0.0647,-0.51569 0.29215,-1.20535 0.35703,-0.68919 0.71764,-1.42966 0.68904,-1.73839 -0.0286,-0.30841 -0.34733,-0.84284 -0.24338,-1.21847 0.10426,-0.37579 0.80565,-1.93424 1.0262,-2.50605 0.22072,-0.57164 0.24167,-1.20878 0.57243,-1.54252 0.33092,-0.33342 0.55665,-0.62369 0.73891,-1.01918 0.18209,-0.39562 0.56352,-1.77308 0.64042,-2.12526 0.0768,-0.35218 0.92555,-3.22854 1.14594,-3.80018 0.22073,-0.57164 0.20712,-1.08374 0.58885,-1.41356 0.38171,-0.32982 0.75251,-0.50709 0.9371,-0.23822 0.18492,0.26902 0.4405,0.61979 0.58446,1.44795 0.0874,0.50208 0.2018,1.27865 0.27012,1.99958 z m -3.83912,-4.33744 c 0.2945,-0.45956 0.72125,-1.17862 1.20112,-2.0138 -0.13098,-0.23167 -0.22947,-0.39502 -0.48161,-0.35125 -0.39657,0.0688 -0.80034,0.2351 -1.20393,0.40142 -0.40361,0.16632 -1.55769,-0.11349 -0.96401,0.468 0.59385,0.58182 1.01418,0.85724 1.2327,1.21567 0.0733,0.12037 0.15601,0.20243 0.21573,0.27996 z m 0.54726,-8.05414 c 0.19727,0.65042 0.17585,0.94258 0.27573,1.58598 0.0999,0.64338 0.22822,0.89755 0.18555,1.48155 -0.0427,0.58415 -0.33467,0.56289 -0.0187,0.92851 0.31576,0.36547 0.83348,0.64792 1.05655,0.27277 0.22323,-0.37515 0.25166,-0.76454 0.15178,-1.40809 -0.0999,-0.64339 -0.28745,-0.755 -0.47753,-1.50281 -0.1901,-0.74797 -0.34938,-1.24896 -0.34938,-1.24896 0,0 -0.0857,-0.83817 -0.48208,-0.76923 -0.39656,0.0689 -0.34186,0.66028 -0.34186,0.66028 z m -4.54019,-0.82082 c 0,0 -0.10192,0.72656 0.21384,1.09218 0.31607,0.36578 0.43018,0.8144 0.75314,1.08264 0.32294,0.26824 0.65559,1.07544 0.74328,0.54367 0.0877,-0.53194 0.0497,-0.68154 -0.0429,-1.42232 -0.0927,-0.74078 -0.5371,-1.36057 -0.5371,-1.36057 l -0.56274,-0.33466 z m -2.12245,0.92164 c 0,0 -0.0429,0.58431 0.41564,1.00902 0.45832,0.42501 1.04514,1.10405 1.61507,1.34133 0.56993,0.23745 1.46278,0.74298 1.40089,0.24901 -0.0618,-0.49379 -0.0167,-0.44158 -0.45378,-1.15861 -0.43705,-0.71686 -0.57242,-0.87364 -0.93352,-1.29163 -0.36092,-0.41783 -0.19726,-0.65043 -0.67684,-0.78345 -0.47957,-0.13271 -0.77173,-0.15412 -0.77173,-0.15412 z m -2.64345,-2.00333 c 0.0547,0.59118 0.2662,1.047 0.63433,1.3676 0.36812,0.32044 0.78376,1.32945 0.97603,0.70732 0.19227,-0.62229 -0.16148,-1.1375 -0.38,-1.49594 -0.21854,-0.35843 -0.77424,-0.79048 -0.77424,-0.79048 z m -11.25347,-4.05107 c 0,0 0.0643,1.13031 0.5013,1.84717 0.43721,0.71717 1.24224,1.75465 1.51298,2.06805 0.27074,0.31341 0.85989,1.62866 1.50595,2.16512 0.64589,0.53648 3.18946,1.89658 3.88772,2.38788 0.6981,0.49146 1.1422,1.11109 1.49609,1.62614 0.3539,0.51522 0.61041,1.02325 1.1733,1.35808 0.5629,0.33483 0.26387,0.41079 1.30618,0.87833 1.04246,0.46754 1.37261,0.63855 1.98755,0.92805 0.6151,0.28949 1.17784,0.62416 1.58864,0.36062 0.41064,-0.26371 0.29668,-0.71249 -0.42534,-1.548 -0.72202,-0.83566 -1.27772,-1.26771 -1.9616,-1.95378 -0.68419,-0.68623 -0.22119,-0.9951 -0.9787,-1.344 -0.7575,-0.3489 -1.19206,-0.42939 -1.62912,-1.14642 -0.43705,-0.71702 -0.93835,-2.56419 -2.10213,-3.38329 -1.16361,-0.81893 -1.43451,-1.13235 -2.51496,-1.74948 -1.08045,-0.61713 -1.32993,-1.22254 -2.04226,-1.51923 -0.71248,-0.29684 -0.56992,-0.23728 -1.42497,-0.59352 -0.85474,-0.35593 -1.88063,-0.38172 -1.88063,-0.38172 z m 16.65683,-2.25908 c -0.0807,0.43456 -0.14006,0.57696 0.0643,1.13016 0.20431,0.5532 0.0477,0.68858 0.40861,1.1064 0.36109,0.41783 0.22806,0.89757 0.87865,0.7003 0.65058,-0.19728 0.75516,-0.28747 0.49849,-0.79549 -0.25651,-0.50819 -0.25902,-1.14454 -0.71734,-1.56941 -0.45831,-0.42487 -0.77422,-0.79049 -0.77422,-0.79049 z m -1.56972,0.71734 c -0.13287,0.47973 0.0479,0.68872 -0.0922,1.26568 -0.1399,0.57711 -0.31795,1.00449 -0.36062,1.58863 -0.0426,0.58415 -0.45331,0.8477 0.0715,1.03278 0.5249,0.18523 0.43705,0.71702 1.10187,0.32514 0.6648,-0.39188 0.73827,-0.72906 0.63135,-1.27523 -0.10707,-0.546 -0.22807,-0.8974 -0.24495,-1.33915 -0.0167,-0.44159 0.1471,-0.67434 -0.12364,-0.98775 -0.27074,-0.31326 -0.98322,-0.6101 -0.98322,-0.6101 z m -2.72959,-6.85475 c 0.19024,0.74813 0.61776,0.92618 0.70342,1.76418 0.0855,0.83816 0.41565,1.00917 0.22338,1.63131 -0.19227,0.62228 -0.50318,1.52939 -0.0544,1.41527 0.44878,-0.1141 0.59853,-0.15224 1.03044,-0.70794 0.43205,-0.5557 0.93304,-0.71483 0.76672,-1.11845 -0.16617,-0.40376 -0.19712,-0.65058 -0.59619,-1.218 -0.39907,-0.56742 -0.57946,-0.77627 -0.94054,-1.19409 -0.36094,-0.41784 -0.67701,-0.78362 -0.67701,-0.78362 z m -11.17328,2.38194 c 0.17226,0.0892 0.54929,0.52569 1.12469,0.69529 0.57509,0.16975 1.08484,0.53913 1.63163,0.40033 0.54679,-0.13913 1.02262,-0.35985 1.14672,-0.65746 0.12381,-0.29763 0.43628,-0.37689 0.26637,-0.84927 -0.17008,-0.47239 -0.35843,-0.6906 -0.64496,-0.96696 -0.28637,-0.27653 -0.68935,-0.35687 -1.14314,-0.44113 -0.45378,-0.0844 -0.34858,-0.12771 -0.95852,-0.17225 -0.60994,-0.0444 -0.70061,-0.20431 -0.89147,-0.0395 -0.19086,0.16492 -0.27402,-0.0966 -0.40892,0.35343 -0.13506,0.4502 -0.22056,0.5718 -0.26292,0.79862 -0.0421,0.22697 -0.10911,0.0943 -0.0493,0.32857 0.0594,0.23447 0.18977,0.55039 0.18977,0.55039 z"
     style="fill:#af032d;fill-rule:evenodd;stroke-width:1.56315"
     id="path26" />
  <g
     id="Layer1003"
     transform="matrix(1.5631555,0,0,1.5631533,-243.9684,-748.09046)">
    <path
       d="m 190.038,673.422 7.0189,-14.944 -0.4703,-1.2246 -11.9049,4.5697 c -0.7928,0.3686 -1.4088,-0.0977 -1.842,-1.4051 l -0.1003,-0.2616 -0.8776,0.337 2.2175,5.777 0.8776,-0.337 -0.1003,-0.2614 c -0.3586,-0.9337 -0.4677,-1.5641 -0.3215,-1.8861 0.1412,-0.324 0.6237,-0.6418 1.4375,-0.9545 l 6.7405,-2.5874 -6.0134,12.8528 1.7475,4.5522 0.8777,-0.3368 c -0.2696,-0.7021 -0.3476,-1.3405 -0.2356,-1.919 l 10.3292,-3.9651 c 0.9121,-0.4145 1.591,-0.0411 2.0384,1.1242 l 0.0671,0.1754 0.874,-0.3356 -2.0829,-5.4258 -0.8737,0.3354 c 0.7206,1.5315 0.3875,2.4947 -1.0012,2.895 z m -2.7065,-20.1311 c 4.5411,-1.2433 6.4667,-4.5358 5.7819,-9.87 -1.1727,-5.5689 -4.3149,-8.0935 -9.4264,-7.5742 -4.6256,1.1325 -6.62,4.4045 -5.9831,9.8122 1.306,5.6106 4.5168,8.1555 9.6276,7.632 z m -1.7251,-3.3106 c -3.7868,0.4768 -6.0495,-0.8382 -6.7884,-3.9453 -0.3595,-3.4906 1.777,-5.7722 6.4097,-6.8408 3.9719,-0.5097 6.292,0.7628 6.9567,3.818 0.3221,3.6232 -1.8717,5.9473 -6.578,6.9681 z m -1.1897,-24.5608 0.0654,-1.8748 c 0.5216,-0.6061 1.5514,-1.4468 3.0898,-2.5178 1.0896,-0.7143 1.7958,-1.218 2.1186,-1.5191 0.5791,-0.5439 1.0097,-1.1854 1.2878,-1.9281 0.1502,-0.7432 0.2483,-1.8363 0.2985,-3.2714 0.0218,-0.6237 0.0394,-1.1234 0.0524,-1.4993 l -0.7478,-0.0261 c -0.1097,1.3091 -0.6465,2.3548 -1.6103,3.1337 -0.5171,0.4825 -1.3193,1.1106 -2.4112,1.8851 -1.2177,0.8339 -2.0865,1.5242 -2.6056,2.0664 -0.5431,-2.3326 -1.7807,-3.5645 -3.7176,-3.6921 -1.0593,-0.0369 -1.9797,0.303 -2.7536,1.0287 -1.2243,1.0176 -1.8652,3.2167 -1.9193,6.5928 -0.0306,0.8756 -0.0162,2.1889 0.0507,3.9402 -0.0173,0.4997 -0.0181,1.3124 0.007,2.4417 0.0556,0.2503 0.076,0.4712 0.0695,0.6588 l 0.9391,0.0329 0.0167,-0.4717 c -0.0139,-1.4374 0.6047,-2.0721 1.8474,-1.9049 l 9.4623,0.3305 c 1.2532,-0.0161 1.821,0.6923 1.711,2.1252 l -0.0133,0.3756 0.9354,0.0328 0.2914,-8.3389 -0.9354,-0.0329 -0.0261,0.7478 c -0.0437,1.2512 -0.6613,1.8538 -1.8485,1.8125 z m -7.8713,-0.275 0.0459,-1.311 c 0.1602,-2.7482 1.3644,-4.1111 3.617,-4.0961 2.3128,0.0205 3.4149,1.5877 3.3058,4.7141 l -0.0329,0.9354 z m 3.2052,-26.4945 0.5365,-2.7604 c 0.1908,-0.9817 0.4629,-1.5647 0.8167,-1.7484 0.2954,-0.1993 1.1081,-0.294 2.4443,-0.2909 l 0.1786,-0.9187 -4.4884,-0.4938 -0.161,0.8286 c 0.3209,0.3189 0.4023,0.718 0.2444,1.1968 l -2.1821,11.2257 c -0.0474,0.2435 -0.1171,0.4542 -0.2158,0.6265 -0.0864,0.1094 -0.2378,0.239 -0.4583,0.3878 l -0.1435,0.7381 4.328,1.3181 0.197,-1.0134 c -1.2407,-0.4937 -1.9582,-0.8897 -2.158,-1.1814 -0.2583,-0.307 -0.2985,-0.9176 -0.1191,-1.8403 l 0.5542,-2.8508 10.7663,2.0928 c 1.1783,0.1639 1.6443,0.8901 1.394,2.1779 l -0.161,0.8286 0.9187,0.1785 1.6456,-8.4653 -0.9188,-0.1786 -0.1077,0.5533 c -0.227,1.4839 -0.9397,2.0463 -2.1444,1.6821 z m 18.197,-17.1942 0.8679,0.3507 2.88,-7.1283 -0.8679,-0.3506 -0.1409,0.3489 c -0.4357,1.2387 -1.2184,1.5953 -2.3553,1.0672 l -8.864,-3.5812 c -1.1253,-0.3858 -1.4266,-1.1458 -0.898,-2.2828 l 0.1752,-0.434 -0.8717,-0.352 -2.88,7.1283 0.8717,0.352 0.0706,-0.1746 c 0.4558,-1.2997 1.2543,-1.6843 2.3873,-1.1577 l 3.479,1.4057 -2.9849,7.3877 -3.564,-1.44 c -1.1256,-0.3855 -1.4134,-1.1792 -0.8623,-2.3718 l 0.1406,-0.3483 -0.8714,-0.3524 -2.88,7.1283 0.8717,0.3521 0.1392,-0.345 c 0.445,-1.1016 1.1874,-1.4446 2.2334,-1.0219 l 8.8636,3.5813 c 1.1016,0.445 1.431,1.2212 0.9859,2.3224 l -0.1392,0.345 0.8677,0.3506 2.88,-7.128 -0.8677,-0.3506 -0.1408,0.3484 c -0.4692,1.161 -1.2555,1.5162 -2.357,1.0712 l -3.9977,-1.6155 2.9845,-7.3876 3.9127,1.5808 c 1.1574,0.4675 1.5177,1.2515 1.0726,2.3531 z m 9.0019,-39.3599 0.2367,-0.2922 c 0.8136,-1.1064 1.8576,-1.1055 3.1318,0.004 l 4.5167,3.6575 c 2.1946,1.8595 2.3539,3.9957 0.4753,6.4174 -1.8195,2.1452 -3.7454,2.4383 -5.7755,0.8713 l -5.5364,-4.4832 c -0.8237,-0.667 -0.885,-1.4369 -0.1749,-2.3137 l 0.2339,-0.2891 -0.7305,-0.5916 -4.7197,5.8286 0.7305,0.5916 0.2971,-0.3668 c 0.6978,-0.9635 1.4635,-1.0639 2.2994,-0.3101 l 5.5364,4.4835 c 2.8074,2.1963 5.6905,1.5149 8.6505,-2.0384 2.7442,-3.4908 2.5582,-6.5341 -0.5599,-9.1417 l -4.663,-3.7757 c -1.1095,-0.8164 -1.1662,-1.7887 -0.1726,-2.9138 l 0.1185,-0.1462 -0.7305,-0.5916 -3.8942,4.8089 z m 11.4809,-8.8117 16.4152,1.771 1.0049,-0.843 -8.197,-9.7687 c -0.6063,-0.6296 -0.3662,-1.3638 0.7291,-2.1992 l 0.2146,-0.18 -0.6041,-0.72 -4.7404,3.9776 0.6041,0.72 0.2146,-0.18 c 0.7662,-0.6429 1.3266,-0.9516 1.6786,-0.9178 0.3527,0.028 0.8099,0.3804 1.3706,1.0485 l 4.6409,5.5307 -14.11,-1.5013 -3.7355,3.1343 0.6043,0.72 c 0.576,-0.4833 1.1543,-0.7651 1.7379,-0.8473 l 7.1116,8.4753 c 0.6888,0.7277 0.557,1.4911 -0.3991,2.2933 l -0.144,0.1207 0.6015,0.7172 4.4524,-3.7358 -0.6018,-0.7171 c -1.2135,1.18 -2.2326,1.1789 -3.0631,-0.004 z m 14.1758,-13.6304 0.2373,-0.1483 c 1.0247,-0.7157 1.8459,-0.5261 2.4528,0.5661 l 5.0683,8.1108 c 0.65,0.9192 0.4434,1.7135 -0.6151,2.3748 l -0.2372,0.1483 0.496,0.7937 6.4383,-4.0229 -0.496,-0.794 -0.3189,0.1995 c -1.0809,0.7461 -1.9239,0.5746 -2.5331,-0.521 l -5.0173,-8.0294 c -0.6296,-1.0074 -0.4138,-1.8403 0.6443,-2.5016 l 0.3192,-0.1992 -0.4983,-0.7972 -6.4383,4.0233 z m 23.3405,3.3647 1.3702,-0.61 -0.1856,-12.6414 c -0.1137,-1.9372 0.4031,-3.0869 1.5389,-3.4569 l 0.0842,-0.0374 -0.3824,-0.8586 -5.5653,2.4778 0.3824,0.8586 0.5114,-0.2276 c 1.2232,-0.4791 1.859,-0.2804 1.904,0.5881 l 0.2444,9.5375 -6.704,-5.8425 c -0.6477,-0.5304 -0.9226,-0.9904 -0.8192,-1.3779 0.0995,-0.3858 0.6098,-0.7838 1.5234,-1.1906 l 0.3398,-0.151 -0.3823,-0.8589 -7.6224,3.3939 0.3824,0.8586 0.1715,-0.0765 c 0.6284,-0.2798 1.1358,-0.37 1.523,-0.2665 0.305,0.0655 0.836,0.4116 1.5906,1.0344 z m 18.3662,-20.4559 c 0.8833,-0.3354 1.5948,0.2395 2.1297,1.7209 l 0.9122,-0.2106 -1.0539,-3.32 -12.8812,2.9741 0.2114,0.9159 0.2767,-0.0641 c 1.385,-0.3855 2.1821,0.009 2.387,1.1815 l 2.1719,9.4085 c 0.3297,1.1429 -0.1522,1.8292 -1.4479,2.0667 l -0.9122,0.2106 0.2106,0.9119 14.0661,-3.2473 -0.5672,-3.7196 -0.9159,0.2114 c 0.0899,1.7771 -0.6083,2.7717 -2.0976,2.9886 l -3.9288,0.9068 c -0.6424,0.2755 -1.0372,-0.0479 -1.1903,-0.9771 l -0.97,-4.2018 3.4727,-0.8016 c 1.5542,-0.4862 2.3822,-0.1027 2.4803,1.1596 l 0.9159,-0.2112 -1.0752,-4.6576 -0.9159,0.2115 c 0.3289,1.1392 -0.1253,1.8227 -1.3555,2.0412 l -3.8389,0.8864 -1.2014,-5.2033 z m 14.1265,5.1763 1.8714,-0.1307 c 0.6574,0.4553 1.601,1.3915 2.827,2.8094 0.8243,1.0092 1.3989,1.6586 1.732,1.9483 0.6018,0.519 1.2846,0.8801 2.0522,1.0791 0.7552,0.0718 1.8525,0.055 3.2851,-0.045 0.6222,-0.0434 1.1211,-0.0783 1.4964,-0.1046 l -0.0521,-0.7464 c -1.3136,0.0278 -2.4098,-0.3968 -3.2851,-1.2739 -0.5338,-0.464 -1.2424,-1.1962 -2.1268,-2.2011 -0.9567,-1.1239 -1.7337,-1.9159 -2.3276,-2.3751 2.2632,-0.7841 3.3591,-2.1436 3.2834,-4.0831 -0.074,-1.0576 -0.5082,-1.9374 -1.3107,-2.6314 -1.1401,-1.1109 -3.3942,-1.5185 -6.7575,-1.2194 -0.874,0.0609 -2.1785,0.2126 -3.9133,0.4623 -0.4989,0.0349 -1.307,0.1193 -2.4276,0.2619 -0.2429,0.0811 -0.4606,0.1245 -0.648,0.1375 l 0.0655,0.9377 0.4709,-0.0329 c 1.428,-0.1641 2.124,0.385 2.0874,1.6382 l 0.6605,9.445 c 0.1471,1.245 -0.4981,1.8836 -1.9347,1.9239 l -0.375,0.0261 0.0655,0.9337 8.3236,-0.582 -0.0652,-0.9337 -0.7463,0.0522 c -1.249,0.0873 -1.9131,-0.4638 -1.9959,-1.6489 z m -0.5494,-7.8568 1.3088,-0.0915 c 2.7499,-0.1282 4.231,0.9272 4.4518,3.1691 0.2214,2.3023 -1.2223,3.562 -4.3427,3.7803 l -0.9337,0.0652 z m 17.0402,13.7214 0.6542,0.0459 c 0.1452,-0.2426 0.3096,-0.3552 0.4933,-0.3424 0.1272,0.009 0.4025,0.0884 0.8285,0.2463 1.351,0.4074 2.4336,0.6392 3.2437,0.6959 3.1887,0.099 5.0009,-1.218 5.4442,-3.9418 0.0786,-1.1251 -0.3143,-2.215 -1.1823,-3.2783 -0.6936,-0.8025 -1.8862,-1.6999 -3.5685,-2.6955 -1.8615,-1.1928 -2.7615,-2.1982 -2.7048,-3.0081 0.1975,-1.0488 1.019,-1.5568 2.4559,-1.5205 1.927,0.199 3.1654,1.3521 3.704,3.4552 l 0.9377,0.0654 -0.1987,-3.8673 -0.4708,-0.0329 c -0.1281,0.055 -0.1624,0.0845 -0.0984,0.0891 -0.1961,0.1108 -0.3566,0.1638 -0.4799,0.155 -0.064,-0.004 -0.2749,-0.0833 -0.6415,-0.2333 -1.0995,-0.3895 -2.086,-0.6151 -2.9602,-0.6763 -3.0696,-0.0258 -4.7809,1.1695 -5.1383,3.5867 0.2137,2.3323 1.5051,3.9903 3.8826,4.9708 1.9981,0.9538 3.0707,2.1875 3.2176,3.7012 -0.2282,1.4879 -1.1886,2.2028 -2.8769,2.1489 -1.9953,-0.1394 -3.2851,-1.4207 -3.8653,-3.8432 l -0.9338,-0.0655 z m 16.5759,-12.3284 0.2724,0.0629 c 1.2305,0.2183 1.6772,0.9331 1.3343,2.1345 l -2.1515,9.3192 c -0.1905,1.1094 -0.8981,1.525 -2.1144,1.2441 l -0.2724,-0.0629 -0.2106,0.9121 7.3975,1.7079 0.2104,-0.9122 -0.3665,-0.0844 c -1.2918,-0.2367 -1.7666,-0.9542 -1.4227,-2.1598 l 2.1299,-9.2253 c 0.2673,-1.1574 1.0086,-1.5937 2.2244,-1.313 l 0.3665,0.0844 0.2114,-0.9158 -7.3973,-1.7076 z m 20.5101,5.8413 2.6742,0.8688 c 0.9513,0.309 1.4967,0.6503 1.6358,1.0236 0.1619,0.3175 0.1568,1.1359 -0.009,2.4616 l 0.89,0.2892 1.037,-4.3946 -0.8025,-0.2608 c -0.3561,0.2795 -0.762,0.3115 -1.2178,0.0964 l -10.8762,-3.534 c -0.2359,-0.0765 -0.4366,-0.1712 -0.5953,-0.2902 -0.0981,-0.0992 -0.2084,-0.2653 -0.3291,-0.502 l -0.7152,-0.2325 -1.8357,4.1352 0.9816,0.3189 c 0.6415,-1.1713 1.122,-1.8351 1.4358,-1.9981 0.3362,-0.2189 0.947,-0.1843 1.8411,0.1063 l 2.762,0.8974 -3.3893,10.4309 c -0.3062,1.1498 -1.084,1.5237 -2.3315,1.1183 l -0.8028,-0.2608 -0.2891,0.8904 8.2017,2.6648 0.2892,-0.8903 -0.5361,-0.1741 c -1.4454,-0.4065 -1.9168,-1.1823 -1.4082,-2.3335 z m 16.5268,16.3979 6.5676,-3.5399 c 0.7186,-0.3881 1.2608,-0.5911 1.6228,-0.6007 0.4164,0.0159 0.944,0.1619 1.5747,0.4431 l 0.4558,-0.8221 -5.0029,-2.7731 -0.4558,0.822 0.2483,0.1378 c 0.6018,0.3336 0.9077,0.6812 0.9207,1.0454 -0.0428,0.3328 -0.3781,0.682 -1.0114,1.0491 l -4.5944,2.4885 -0.9071,-6.2926 c -0.0365,-0.4456 0.0865,-0.7339 0.3731,-0.8631 0.2559,-0.0735 0.6256,0.0263 1.1191,0.2999 l 0.3288,0.1822 0.4555,-0.822 -6.8884,-3.8186 -0.4559,0.8224 0.1645,0.091 c 0.5459,0.3027 0.8983,0.5663 1.0564,0.8005 0.1571,0.2287 0.254,0.6392 0.2843,1.2276 l 1.1917,8.4858 -1.6367,2.9529 c -0.489,1.0139 -1.2835,1.2183 -2.3751,0.6131 l -0.5738,-0.3177 -0.4538,0.8186 7.2139,3.9986 0.4538,-0.8187 -0.3288,-0.1823 c -1.3411,-0.6746 -1.6557,-1.5261 -0.9369,-2.5591 z m 22.0799,14.5479 c -3.2522,3.4047 -3.2068,7.2185 0.1273,11.4381 3.8735,4.1695 7.867,4.7152 11.9809,1.6376 3.3817,-3.3531 3.4058,-7.185 0.0748,-11.4922 -4.009,-4.1366 -8.0719,-4.6644 -12.183,-1.5835 z m 3.1839,1.9494 c 3.0002,-2.359 5.6168,-2.3972 7.8505,-0.1145 2.1062,2.8069 1.4499,5.8629 -1.9706,9.165 -3.1422,2.4823 -5.7864,2.5866 -7.9297,0.3104 -2.1421,-2.9398 -1.4587,-6.0619 2.0498,-9.3609 z m 19.3994,16.2961 2.5532,3.9317 c 0.652,0.769 0.3472,1.563 -0.9108,2.3799 l 0.4595,0.7078 2.8316,-1.8388 -6.588,-10.1443 -0.7079,0.4595 0.1548,0.2381 c 0.6276,0.8563 0.3226,1.6503 -0.9139,2.3822 l -8.0986,5.2591 c -0.8061,0.595 -1.4533,0.4573 -1.9476,-0.4141 l -0.2047,-0.3152 -0.7852,0.5096 3.8823,5.9783 0.7849,-0.5099 -0.2571,-0.3958 c -0.7486,-0.9255 -0.4614,-1.7464 0.864,-2.4593 l 3.2239,-2.0937 2.0435,3.1468 c 0.6987,0.9581 0.5326,1.7385 -0.4986,2.3318 l 0.5122,0.7883 4.0087,-2.6034 -0.5119,-0.7883 c -0.9771,0.7869 -1.8247,0.5171 -2.5342,-0.8104 l -1.8388,-2.8315 z m 7.9526,43.0523 c -2.4542,-0.4031 -4.0218,-1.6761 -4.7032,-3.8197 -0.7342,-3.6926 0.8974,-6.2742 4.8988,-7.7462 3.9147,-0.8603 6.4899,0.4153 7.731,3.8293 0.5935,2.3015 -0.1664,4.18 -2.2879,5.6328 l 0.258,0.8997 4.0048,-1.3436 -0.1809,-0.6308 c -0.1536,-0.085 -0.258,-0.2174 -0.3095,-0.3979 -0.0343,-0.1194 -0.0426,-0.3793 -0.0256,-0.7711 0.1012,-1.4604 -0.0141,-2.7629 -0.3407,-3.9013 -1.9703,-5.2897 -5.3359,-7.5078 -10.0995,-6.662 -4.3861,1.7113 -6.0188,5.2047 -4.8994,10.4721 0.1896,0.6613 0.4838,1.455 0.8787,2.3822 0.2687,0.705 0.4425,1.2087 0.5284,1.5086 0.1545,0.5383 0.2562,0.9958 0.2985,1.3751 1.4507,0.2996 2.9639,0.3526 4.5331,0.165 z m -1.3966,16.1241 -0.9323,0.0813 0.6701,7.6589 0.9323,-0.0816 -0.0329,-0.3747 c -0.174,-1.3014 0.3615,-1.9746 1.6144,-2.0203 l 9.5235,-0.8331 c 1.1778,-0.1672 1.7912,0.3733 1.8366,1.6263 l 0.0408,0.4662 0.9363,-0.0819 -0.6698,-7.6589 -0.9366,0.0819 0.0164,0.1874 c 0.1837,1.3652 -0.3529,2.0707 -1.6015,2.1155 l -3.7381,0.3271 -0.6942,-7.9376 3.8293,-0.335 c 1.1778,-0.1676 1.7946,0.409 1.8451,1.7217 l 0.0329,0.3745 0.9363,-0.0819 -0.6701,-7.6587 -0.9363,0.0819 0.0323,0.3705 c 0.1037,1.1835 -0.4022,1.8261 -1.5262,1.9245 l -9.5233,0.8331 c -1.1834,0.1034 -1.8294,-0.4383 -1.9329,-1.6217 l -0.0323,-0.3705 -0.9326,0.0813 0.6701,7.6587 0.9326,-0.0816 -0.0329,-0.3745 c -0.1091,-1.2472 0.4303,-1.9208 1.6138,-2.0242 l 4.2953,-0.3759 0.6945,7.9376 -4.2038,0.3679 c -1.2433,0.1089 -1.9204,-0.426 -2.0239,-1.6095 z m 13.3345,11.4514 -0.0196,0.2792 c -0.023,1.2495 -0.6593,1.8025 -1.8995,1.6517 l -9.5408,-0.6673 c -1.1257,-0.0144 -1.647,-0.6485 -1.5599,-1.8935 l 0.0195,-0.2792 -0.9337,-0.0652 -0.5295,7.5736 0.9337,0.0652 0.0261,-0.3753 c 0.0317,-1.3127 0.6658,-1.8941 1.9105,-1.7427 l 9.4448,0.6604 c 1.1851,0.0828 1.732,0.7467 1.6449,1.9914 l -0.0261,0.3753 0.9378,0.0657 0.5295,-7.5736 z m -17.8387,41.2939 -3.0294,0.0457 c -0.6384,0.089 -1.067,-0.0114 -1.2926,-0.2948 -0.2277,-0.2889 -0.2155,-0.7557 0.0311,-1.3981 l 0.3011,-0.784 -0.8739,-0.3354 -2.7882,7.2632 0.8739,0.3354 c 0.4028,-1.0491 1.3675,-1.5531 2.8874,-1.5052 l 13.0915,-0.0944 1.2756,-3.3236 -0.7129,0.0261 -9.1984,-7.9484 c -1.281,-1.0273 -1.6983,-2.0273 -1.2623,-2.9954 l 0.1347,-0.3512 -0.874,-0.3353 -2.2847,5.9525 0.8737,0.3353 0.1017,-0.2648 c 0.3799,-0.9898 0.7348,-1.5562 1.0562,-1.7027 0.2648,-0.1642 0.6914,0.0297 1.2804,0.5944 l 2.2896,1.8816 z m 1.3923,0.0332 1.5452,-4.0252 4.5111,3.9422 z"
       style="fill:#af032d;fill-rule:evenodd"
       id="path27" />
    <path
       d="m 419.6514,642.3259 -14.1755,8.4642 -0.295,1.2785 12.4251,2.8683 c 0.8631,0.1381 1.1131,0.8689 0.7412,2.1952 l -0.0629,0.273 0.9159,0.2114 1.3918,-6.0295 -0.9159,-0.2115 -0.0629,0.273 c -0.2251,0.9745 -0.487,1.5585 -0.7883,1.7433 -0.2983,0.1899 -0.876,0.1837 -1.7255,-0.0125 l -7.035,-1.6242 12.1725,-7.2927 1.097,-4.7512 -0.9159,-0.2115 c -0.1692,0.7328 -0.4614,1.3057 -0.8781,1.7227 l -10.7805,-2.4889 c -0.9878,-0.1664 -1.3419,-0.8555 -1.061,-2.0715 l 0.0423,-0.1831 -0.9122,-0.2106 -1.3074,5.663 0.9122,0.2103 c 0.2588,-1.6724 1.0735,-2.2847 2.4486,-1.8402 z"
       style="fill:#af032d;fill-rule:evenodd"
       id="path28" />
  </g>
  <path
     d="m 374.83029,329.68388 c 3.63434,0 6.59527,2.9603 6.59527,6.58994 0,3.63027 -2.96093,6.5976 -6.59527,6.5976 -3.63199,0 -6.59058,-2.96733 -6.59058,-6.5976 0,-3.62964 2.95859,-6.58994 6.59058,-6.58994 z"
     style="fill:#af032d;fill-rule:evenodd;stroke-width:1.56315"
     id="path29" />
</svg>
